<svg xmlns="http://www.w3.org/2000/svg" width="21.607" height="18.535" viewBox="0 0 21.607 18.535">
    <defs>
        <style>
            .cls-1{fill:#174eda}
        </style>
    </defs>
    <g id="abs_warning_light" transform="translate(-2.013 -3.995)">
        <g id="Layer_12" transform="translate(2.013 3.995)">
            <path id="Path_3998" d="M22.691 22.53a.772.772 0 0 1-.409-1.428 9.265 9.265 0 0 0 0-15.682.772.772 0 1 1 .826-1.3 10.81 10.81 0 0 1 0 18.292.772.772 0 0 1-.417.118z" class="cls-1" transform="translate(-6.549 -3.995)"/>
            <path id="Path_3999" d="M7.47 22.541a.772.772 0 0 1-.409-.116 10.81 10.81 0 0 1 0-18.292.772.772 0 0 1 .818 1.3 9.265 9.265 0 0 0 0 15.682.772.772 0 0 1-.409 1.421z" class="cls-1" transform="translate(-2.013 -4.006)"/>
            <path id="Path_4000" d="M13.721 21.442a7.721 7.721 0 1 1 7.721-7.721 7.721 7.721 0 0 1-7.721 7.721zm0-13.9a6.177 6.177 0 1 0 6.179 6.179 6.177 6.177 0 0 0-6.179-6.177z" class="cls-1" transform="translate(-2.922 -4.452)"/>
            <path id="Path_4001" d="M7.47 22.541a.772.772 0 0 1-.409-.116 10.81 10.81 0 0 1 0-18.292.772.772 0 0 1 .818 1.3 9.265 9.265 0 0 0 0 15.682.772.772 0 0 1-.409 1.421z" class="cls-1" transform="translate(-2.013 -4.006)"/>
            <path id="Path_4002" d="M22.691 22.53a.772.772 0 0 1-.409-1.428 9.265 9.265 0 0 0 0-15.682.772.772 0 1 1 .826-1.3 10.81 10.81 0 0 1 0 18.292.772.772 0 0 1-.417.118z" class="cls-1" transform="translate(-6.549 -3.995)"/>
            <path id="Path_4003" d="M13.029 17.172h-1.065l-.17-.772H10.7l-.178.772H9.47l1.181-4.532H11.8zm-1.436-1.544q-.232-1.008-.347-1.923c-.085.625-.193 1.266-.34 1.923z" class="cls-1" transform="translate(-3.712 -5.965)"/>
            <path id="Path_4004" d="M14.75 12.638h1.042a1.953 1.953 0 0 1 1.313.355 1.166 1.166 0 0 1 .4.911 1.1 1.1 0 0 1-.587.957.981.981 0 0 1 .664 1 1.2 1.2 0 0 1-.409.919 1.544 1.544 0 0 1-1.081.355H14.75zm1.027.872v.95q.687 0 .687-.479a.425.425 0 0 0-.164-.381 1.027 1.027 0 0 0-.525-.085zm0 1.8v.981a1.22 1.22 0 0 0 .587-.124.4.4 0 0 0 .193-.371q0-.486-.695-.486z" class="cls-1" transform="translate(-4.915 -5.962)"/>
            <path id="Path_4005" d="M19.287 17.041V15.96a1.73 1.73 0 0 0 .818.286.417.417 0 0 0 .309-.108.371.371 0 0 0 .108-.286.417.417 0 0 0-.093-.255 1.745 1.745 0 0 0-.309-.286 3.521 3.521 0 0 1-.772-.772 1.367 1.367 0 0 1-.239-.772 1.266 1.266 0 0 1 1.328-1.328 2.154 2.154 0 0 1 .865.185v1.019a1.676 1.676 0 0 0-.772-.255.448.448 0 0 0-.3.093.317.317 0 0 0-.108.255q0 .286.51.641a3.088 3.088 0 0 1 .618.595 1.351 1.351 0 0 1 .317.88 1.282 1.282 0 0 1-.409.973 1.459 1.459 0 0 1-1.042.386 1.961 1.961 0 0 1-.829-.17z" class="cls-1" transform="translate(-5.909 -5.919)"/>
        </g>
    </g>
</svg>
