<svg xmlns="http://www.w3.org/2000/svg" width="28.277" height="9.751" viewBox="0 0 28.277 9.751">
    <path fill="#174eda" d="M27.589 26.678l-2.212-1.427-8.544 3.037-1.6-.946h-4.04v-.527h1.734v-1.436H8.021v1.436h1.736v.527H5.243l-2.976-1.714L0 27.995l4.821 6.242.045-.035V35h10.425l10.04-8.07 1.481.955zm-25.7 1.417l.634-.661 2.338 1.348v3.161zm12.892 5.471H6.3v-4.788h8.539l1.839 1.09 4.849-1.723zm13.492-2.7a1.077 1.077 0 0 1-2.154 0 10.1 10.1 0 0 1 1.081-2.482 10.121 10.121 0 0 1 1.077 2.483z" transform="translate(0 -25.251)"/>
</svg>
