<svg xmlns="http://www.w3.org/2000/svg" width="32.839" height="32.839" viewBox="0 0 32.839 32.839">
    <g id="exception" transform="translate(-33.581 -33.581)">
        <path id="Path_3685" fill="#fff" d="M21.419 5a16.419 16.419 0 1 0 16.42 16.419A16.438 16.438 0 0 0 21.419 5zm0 28.278a2.737 2.737 0 1 1 2.737-2.737 2.739 2.739 0 0 1-2.737 2.737zm4.561-18.887a4.541 4.541 0 0 1-.275 1.559l-3.429 9.43a.912.912 0 0 1-1.715 0l-3.429-9.43a4.547 4.547 0 0 1-.274-1.558v-.27a4.561 4.561 0 0 1 9.122 0z" data-name="Path 3685" transform="translate(28.581 28.581)"/>
    </g>
</svg>
