<svg xmlns="http://www.w3.org/2000/svg" width="12.443" height="13.456" viewBox="0 0 12.443 13.456">
    <g opacity="0.8">
        <path fill="#174eda" d="M8.291 13.456H0v-1.184h.592v-11A1.188 1.188 0 0 1 1.777.088h4.738A1.188 1.188 0 0 1 7.7 1.273v3.486a2.033 2.033 0 0 1 1.776 2.013v3.272a.846.846 0 0 0 1.692 0v-.025L10.731 4.3a4.1 4.1 0 0 0-.691-1.9 4.188 4.188 0 0 0-1.5-1.347c-.08-.043-.246-.12-.248-.121V0a5.444 5.444 0 0 1 1.315.52 5.953 5.953 0 0 1 1.154.838 6.635 6.635 0 0 1 .957 1.11 7.3 7.3 0 0 1 .725 1.332l-.527.375.435 5.79v.077a2.031 2.031 0 0 1-4.061 0v-3.27a.841.841 0 0 0-.592-.8v6.3h.592v1.184zM1.7 6.964v4.446h4.89V6.964zm.075-5.691V4.72h4.74V1.273z" transform="translate(27.986 15.687) translate(-27.986 -15.687)"/>
        <path fill="#91b3ea" d="M0 0H4V3.5H0z" transform="translate(27.986 15.687) translate(-25.766 -8.365)"/>
    </g>
</svg>
