<svg xmlns="http://www.w3.org/2000/svg" width="40.468" height="62.432" viewBox="0 0 40.468 62.432">
    <defs>
        <style>
            .cls-1{fill:#585a60}.cls-2{fill:#bababa}.cls-3{fill:#989da0}
        </style>
    </defs>
    <g id="fuel_1_" transform="translate(-90.065)">
        <g id="Group_1280" transform="translate(114.354 12.781)">
            <path id="Path_3716" d="M292.685 406.745l-3.188-3.031a.915.915 0 0 1 1.347-1.237l3.188 3.031a.915.915 0 0 1-1.347 1.237z" class="cls-1" transform="translate(-289.256 -365.921)"/>
            <path id="Path_3717" d="M358.606 281.212l-4.4-.337a.915.915 0 0 1 .1-1.826l4.4.337a.915.915 0 0 1-.1 1.826z" class="cls-1" transform="translate(-345.525 -257.802)"/>
            <path id="Path_3718" d="M304.447 109.482a.915.915 0 0 1 .064-1.292l3.388-3.138a.915.915 0 1 1 1.228 1.355l-3.388 3.138a.915.915 0 0 1-1.292-.063z" class="cls-1" transform="translate(-302.387 -104.815)"/>
        </g>
        <path id="Path_3719" d="M179.4 286.526l8.911 10.8a1.571 1.571 0 0 0 2.423-2l-8.906-10.792a4.617 4.617 0 0 1-2.428 1.992z" class="cls-2" transform="translate(-78.444 -249.837)"/>
        <path id="Path_3720" d="M189.493 305.393l-8.752-10.607a4.6 4.6 0 0 1-1.337.743l8.911 10.8a1.571 1.571 0 0 0 2.658-.388 1.569 1.569 0 0 1-1.48-.548z" class="cls-3" transform="translate(-78.445 -258.84)"/>
        <path id="Path_3721" fill="#ff8828" d="M174.356 65.585a1.594 1.594 0 0 1 .132-2.251A27.84 27.84 0 0 0 156 14.68a1.594 1.594 0 1 1 0-3.188 31.029 31.029 0 0 1 20.607 54.226 1.594 1.594 0 0 1-2.251-.133z" transform="translate(-56.495 -10.091)"/>
        <path id="Path_3722" fill="#ea473b" d="M327.636 288.642l-3.185-.18a27.88 27.88 0 0 1-9.213 18.07 1.594 1.594 0 1 0 2.118 2.383 31.07 31.07 0 0 0 10.28-20.273z" transform="translate(-197.244 -253.287)"/>
        <g id="Group_1281" transform="translate(90.065)">
            <path id="Path_3723" d="M94.712 0H90.37a.3.3 0 0 0-.3.3v6.69a.3.3 0 0 0 .3.3h1.075a.3.3 0 0 0 .3-.3V4.418h2.387a.3.3 0 0 0 .3-.3v-.762a.3.3 0 0 0-.3-.3H91.75V1.479h2.962a.3.3 0 0 0 .3-.3V.3a.3.3 0 0 0-.3-.3z" class="cls-1" transform="translate(-90.065)"/>
            <path id="Path_3724" d="M249.731 457.994h-3.137v-1.551h2.572a.3.3 0 0 0 .3-.3v-.757a.3.3 0 0 0-.3-.3h-2.572v-1.418h3.045a.3.3 0 0 0 .3-.3v-.87a.3.3 0 0 0-.3-.3h-4.425a.3.3 0 0 0-.3.3v6.685a.3.3 0 0 0 .3.3h4.517a.3.3 0 0 0 .3-.3v-.87a.3.3 0 0 0-.3-.319z" class="cls-1" transform="translate(-226.028 -397.041)"/>
        </g>
        <path id="Path_3725" fill="#dddbdb" d="M133.787 227.188a4.667 4.667 0 1 0 4.667 4.667 4.672 4.672 0 0 0-4.667-4.667z" transform="translate(-34.293 -199.485)"/>
        <path id="Path_3726" d="M131.472 231.836a4.675 4.675 0 0 1 3.492-4.517 4.668 4.668 0 1 0 0 9.034 4.676 4.676 0 0 1-3.492-4.517z" class="cls-2" transform="translate(-34.294 -199.465)"/>
        <path id="Path_3727" d="M160.895 32.881a.914.914 0 0 1-.915-.915v-3.911a.915.915 0 1 1 1.829 0v3.912a.915.915 0 0 1-.914.914z" class="cls-1" transform="translate(-61.39 -23.831)"/>
        <path id="Path_3728" fill="#3bbc56" d="M156 11.492a1.594 1.594 0 1 0 0 3.188 27.778 27.778 0 0 1 20.789 9.344l2.373-2.15A30.85 30.85 0 0 0 156 11.492z" transform="translate(-56.495 -10.091)"/>
        <path id="Path_3729" d="M155.355 251.481a1.942 1.942 0 1 1-1.942-1.942 1.942 1.942 0 0 1 1.942 1.942z" class="cls-2" transform="translate(-53.918 -219.111)"/>
        <path id="Path_3730" d="M154.384 249.789a1.941 1.941 0 1 0 0 3.36 1.94 1.94 0 0 1 0-3.36z" class="cls-3" transform="translate(-53.918 -219.098)"/>
        <path id="Path_3731" fill="#f2721c" d="M175.456 74.491a29.93 29.93 0 0 0-19.876-52.305 1.533 1.533 0 0 0-1.174.546 1.593 1.593 0 0 0 1.572 1.339 27.84 27.84 0 0 1 18.489 48.654 1.593 1.593 0 0 0-.219 2.142 1.527 1.527 0 0 0 1.208-.376z" transform="translate(-56.495 -19.481)"/>
        <path id="Path_3732" fill="#c63228" d="M316.026 308.3a29.969 29.969 0 0 0 9.933-19.739l-1.71-.1a27.892 27.892 0 0 1-8.187 17.109c-.983.966-1.738 1.356-1.531 2.453a1.6 1.6 0 0 0 .285.65 1.526 1.526 0 0 0 1.21-.373z" transform="translate(-197.065 -253.287)"/>
        <path id="Path_3733" fill="#31ad45" d="M176.766 33.415L178 32.294a29.759 29.759 0 0 0-22.42-10.108 1.533 1.533 0 0 0-1.174.546 1.6 1.6 0 0 0 1.572 1.339 27.8 27.8 0 0 1 20.788 9.344z" transform="translate(-56.495 -19.481)"/>
    </g>
</svg>
