<svg xmlns="http://www.w3.org/2000/svg" width="42.246" height="42.245" viewBox="0 0 42.246 42.245">
    <defs>
        <style>
            .cls-1{fill:#4279e5}
        </style>
    </defs>
    <g id="fulfilment" transform="translate(-11.793 -11.8)">
        <path id="Path_555" d="M51.175 30.049a2.861 2.861 0 0 0-2.8 2.267h-3.839a11.579 11.579 0 0 0-3.017-7.216l2.72-2.715a2.846 2.846 0 1 0-.843-.865l-2.738 2.738a11.59 11.59 0 0 0-7.224-2.946v-3.834a2.862 2.862 0 1 0-1.211-.037v3.885a11.593 11.593 0 0 0-7.13 3.007l-2.718-2.718a2.862 2.862 0 1 0-.875.837l2.741 2.731a11.568 11.568 0 0 0-2.951 7.22h-3.816a2.9 2.9 0 0 0-2.819-2.354 2.862 2.862 0 1 0 0 5.725 2.809 2.809 0 0 0 2.774-2.16H21.3a11.525 11.525 0 0 0 2.994 7.125l-2.7 2.707a2.885 2.885 0 1 0 .843.875l2.716-2.721a11.591 11.591 0 0 0 7.157 2.96v3.821a2.863 2.863 0 1 0 1.211 0v-3.819a11.592 11.592 0 0 0 7.208-3l2.7 2.7a2.864 2.864 0 1 0 .864-.849l-2.715-2.725a11.549 11.549 0 0 0 2.954-7.161h3.845a2.862 2.862 0 1 0 2.794-3.478zM31.263 14.662a1.653 1.653 0 1 1 1.653 1.653 1.652 1.652 0 0 1-1.653-1.653zm1.653 28.7a10.426 10.426 0 1 1 10.425-10.421 10.426 10.426 0 0 1-10.426 10.426z" class="cls-1" data-name="Path 555"/>
        <path id="Path_3706" d="M74.925 0a4.357 4.357 0 0 0-4.352 4.352c0 2.978 3.895 7.351 4.061 7.535a.392.392 0 0 0 .583 0c.166-.185 4.061-4.557 4.061-7.535A4.357 4.357 0 0 0 74.925 0zm0 6.542a2.19 2.19 0 1 1 2.19-2.19 2.192 2.192 0 0 1-2.19 2.19z" class="cls-1" data-name="Path 3706" transform="translate(-42.419 26.72)"/>
    </g>
</svg>
