<svg xmlns="http://www.w3.org/2000/svg" width="35.45" height="35.351" viewBox="0 0 35.45 35.351">
    <g>
        <g>
            <path fill="#4279e5" d="M30.041 12.134a.7.7 0 0 0-.965 0L12.047 28.5a.7.7 0 0 0-.214.5v15.565a2.79 2.79 0 0 0 2.843 2.726h11.072a.7.7 0 0 0 .7-.7v-8.5a3.121 3.121 0 0 1 6.227 0v8.5a.7.7 0 0 0 .7.7H44.44a2.789 2.789 0 0 0 2.843-2.726V29.006a.7.7 0 0 0-.214-.5z" transform="translate(-11.833 -11.939) translate(11.833 11.939) translate(-11.833 -11.939)"/>
        </g>
    </g>
</svg>
