<svg xmlns="http://www.w3.org/2000/svg" width="44.002" height="30.104" viewBox="0 0 44.002 30.104">
    <g>
        <path fill="#fff" d="M40.09 45.49l-11.538 3.422a9.864 9.864 0 0 1-5.329 0L11.685 45.49a.953.953 0 0 1-.685-.929V32.29a.987.987 0 0 1 1.222-.929l11 3.276a9.864 9.864 0 0 0 5.329 0l11-3.276a.947.947 0 0 1 1.222.929v12.271a1 1 0 0 1-.683.929zm6.31-13.836l-1.91-3.716a1.02 1.02 0 0 0-1.124-.489l-14.813 4.4a9.864 9.864 0 0 1-5.329 0L5.672 26.618a.935.935 0 0 1 0-1.809l17.551-5.231a9 9 0 0 1 5.329 0L48.3 25.445a.936.936 0 0 1 .636 1.173l-1.271 4.889a.694.694 0 0 1-1.265.147z" transform="translate(-4.975 -19.175)"/>
    </g>
</svg>
