<svg xmlns="http://www.w3.org/2000/svg" width="27.227" height="42.156" viewBox="0 0 27.227 42.156">
    <defs>
        <style>
            .cls-1{fill:#fff}
        </style>
    </defs>
    <g id="On_Road" data-name="On Road" transform="translate(-84 -513.172)">
        <g id="noun_Road_1538981" transform="translate(84 528.101)">
            <g id="Group_1269" data-name="Group 1269">
                <path id="Path_3686" d="M51.574 10H51.2l11.129 27.227H64.4z" class="cls-1" data-name="Path 3686" transform="translate(-37.178 -10)"/>
                <path id="Path_3687" d="M22.83 10L10 37.227h2.076L23.2 10z" class="cls-1" data-name="Path 3687" transform="translate(-10 -10)"/>
                <path id="Path_3688" d="M30.178 10l.136 3.914h-.34L30.11 10h-.17L19.9 37.227h9.6l.068-3.914h1.123l.1 3.914h9.6L30.348 10zm.442 19.467h-.953l.068-3.914h.817zm-.136-7.794H29.8l.068-3.914h.476z" class="cls-1" data-name="Path 3688" transform="translate(-16.531 -10)"/>
            </g>
        </g>
        <path id="Path_3700" d="M74.925 0a4.357 4.357 0 0 0-4.352 4.352c0 2.978 3.895 7.351 4.061 7.535a.392.392 0 0 0 .583 0c.166-.185 4.061-4.557 4.061-7.535A4.357 4.357 0 0 0 74.925 0zm0 6.542a2.19 2.19 0 1 1 2.19-2.19 2.192 2.192 0 0 1-2.19 2.19z" class="cls-1" data-name="Path 3700" transform="translate(22.493 513.172)"/>
    </g>
</svg>
