<svg xmlns="http://www.w3.org/2000/svg" id="phone_3_" width="32.987" height="32.987" data-name="phone (3)" viewBox="0 0 32.987 32.987">
    <path id="Path_3704" fill="#25ae88" d="M16.494 0A16.492 16.492 0 0 0 2.721 25.566L0 32.987l7.675-2.558A16.493 16.493 0 1 0 16.494 0z" data-name="Path 3704"/>
    <path id="Path_3705" fill="#fff" d="M132.956 137.21v2.74a1.829 1.829 0 0 1-1.823 1.834c-.057 0-.115 0-.172-.007a18.127 18.127 0 0 1-7.9-2.8 17.832 17.832 0 0 1-5.491-5.48 18.051 18.051 0 0 1-2.809-7.918 1.828 1.828 0 0 1 1.658-1.984c.055 0 .109-.007.163-.007h2.745a1.829 1.829 0 0 1 1.83 1.571 11.739 11.739 0 0 0 .64 2.566 1.824 1.824 0 0 1-.412 1.927l-1.162 1.16a14.627 14.627 0 0 0 5.491 5.48l1.162-1.16a1.833 1.833 0 0 1 1.931-.411 11.745 11.745 0 0 0 2.571.639 1.828 1.828 0 0 1 1.578 1.85z" data-name="Path 3705" transform="translate(-107.363 -115.621)"/>
</svg>
