<svg xmlns="http://www.w3.org/2000/svg" width="10" height="31" viewBox="0 0 10 31">
    <defs>
        <style>
            .cls-2{fill:#91b3ea}
        </style>
    </defs>
    <g id="spark_plug" transform="translate(-11 -1)">
        <g id="Group_1545" transform="translate(0 -1020.362)">
            <path id="Path_3981" fill="#174eda" d="M16 1a1.508 1.508 0 0 0-1.5 1.5v2A1.508 1.508 0 0 0 13 6v9h-1a1.009 1.009 0 0 0-1 1v3a1.009 1.009 0 0 0 1 1v10a2.007 2.007 0 0 0 2 2h3.5v-1H14a.987.987 0 0 1-1-1v-2.281A1.969 1.969 0 0 0 14 28h.5v1.5a.5.5 0 0 0 .5.5h2a.5.5 0 0 0 .5-.5V28h.5a2.007 2.007 0 0 0 2-2v-6a1.009 1.009 0 0 0 1-1v-3a1.009 1.009 0 0 0-1-1h-1V6a1.508 1.508 0 0 0-1.5-1.5v-2A1.508 1.508 0 0 0 16 1zm0 1a.488.488 0 0 1 .5.5v2h-1v-2A.488.488 0 0 1 16 2zm-1.5 3.5h3a.488.488 0 0 1 .5.5v9h-4V6a.488.488 0 0 1 .5-.5zM12 16h8v3h-8zm1 4h6v6a.987.987 0 0 1-1 1h-4a.987.987 0 0 1-1-1v-6zm2.5 8h1v1h-1z" transform="translate(0 1020.362)"/>
            <path id="Rectangle_1199" d="M0 0H1V2H0z" class="cls-2" transform="translate(13 1036.862)"/>
            <path id="Rectangle_1200" d="M0 0H1V2H0z" class="cls-2" transform="translate(15.5 1036.862)"/>
            <path id="Rectangle_1201" d="M0 0H1V2H0z" class="cls-2" transform="translate(18 1036.862)"/>
            <path id="Rectangle_1202" d="M0 0H3V1H0z" class="cls-2" transform="translate(13 1041.362)"/>
            <path id="Rectangle_1203" d="M0 0H3V1H0z" class="cls-2" transform="translate(13 1043.362)"/>
            <path id="Rectangle_1204" d="M0 0H3V1H0z" class="cls-2" transform="translate(13 1045.362)"/>
            <rect id="Rectangle_1205" width="2" height="7" class="cls-2" rx=".5" transform="translate(15 1027.362)"/>
            <path id="Rectangle_1206" d="M0 0h3v1.5a.5.5 0 0 1-.5.5h-2a.5.5 0 0 1-.5-.5V0z" class="cls-2" transform="translate(14.5 1048.362)"/>
        </g>
    </g>
</svg>
