<svg xmlns="http://www.w3.org/2000/svg" width="11.795" height="23.59" viewBox="0 0 11.795 23.59">
    <defs>
        <style>
            .cls-2{fill:#91b3ea}
        </style>
    </defs>
    <g id="thermometer_1_" transform="translate(-128)">
        <g id="Group_1536" transform="translate(128)">
            <g id="Group_1535">
                <path id="Path_3977" fill="#174eda" d="M137.829 13.3V3.932a3.932 3.932 0 1 0-7.863 0V13.3a5.9 5.9 0 1 0 7.863 0zm-3.929 8.324a3.932 3.932 0 0 1-2.621-6.863l.655-.586V3.932a1.966 1.966 0 1 1 3.932 0v10.243l.655.586a3.932 3.932 0 0 1-2.621 6.863z" transform="translate(-128)"/>
            </g>
        </g>
        <g id="Group_1538" transform="translate(132.915 6.652)">
            <g id="Group_1537">
                <path id="Rectangle_1197" d="M0 0H1.966V13.006H0z" class="cls-2"/>
            </g>
        </g>
        <g id="Group_1540" transform="translate(130.577 15.116)">
            <g id="Group_1539">
                <circle id="Ellipse_230" cx="3" cy="3" r="3" class="cls-2" transform="translate(.32 -.321)"/>
            </g>
        </g>
    </g>
</svg>
