<svg xmlns="http://www.w3.org/2000/svg" width="39.887" height="28.748" viewBox="0 0 39.887 28.748">
    <defs>
        <style>
            .cls-1{fill:#fff}
        </style>
    </defs>
    <g id="track" transform="translate(-2.5 -15.8)">
        <g id="Group_1279" data-name="Group 1279" transform="translate(2.5 15.8)">
            <path id="Path_3713" d="M49 62.257a6.8 6.8 0 0 1-.42-.757l-14.752 5.464c-.63 1.219-1.387 2.564-2.228 4.077l19.208-7.061A4.2 4.2 0 0 1 49 62.257z" class="cls-1" data-name="Path 3713" transform="translate(-19.369 -42.292)"/>
            <path id="Path_3714" d="M10.4 28.7a7.892 7.892 0 0 0-7.9 7.9c0 3.11 3.993 10.465 6.3 14.458a1.852 1.852 0 0 0 3.194 0c2.312-3.993 6.3-11.39 6.3-14.458a7.892 7.892 0 0 0-7.894-7.9zm0 11.474a3.573 3.573 0 1 1 3.574-3.574 3.57 3.57 0 0 1-3.574 3.574z" class="cls-1" data-name="Path 3714" transform="translate(-2.5 -23.278)"/>
            <path id="Path_3715" d="M72.857 15.8a6.565 6.565 0 0 0-6.557 6.557c0 2.564 3.32 8.7 5.212 11.978a1.537 1.537 0 0 0 2.648 0c1.891-3.32 5.212-9.415 5.212-11.978a6.5 6.5 0 0 0-6.515-6.557zm0 9.5a2.942 2.942 0 1 1 2.943-2.943 2.951 2.951 0 0 1-2.943 2.943z" class="cls-1" data-name="Path 3715" transform="translate(-39.485 -15.8)"/>
        </g>
    </g>
</svg>
