<svg xmlns="http://www.w3.org/2000/svg" width="39" height="39" viewBox="0 0 39 39">
    <g id="user" transform="translate(-24 -1135)">
        <g id="Ellipse_199" fill="none" stroke="#fff" stroke-width="2px" data-name="Ellipse 199" transform="translate(24 1135)">
            <circle cx="19.5" cy="19.5" r="19.5" stroke="none"/>
            <circle cx="19.5" cy="19.5" r="18.5"/>
        </g>
        <g id="user-2" data-name="user" transform="translate(26.998 1137.998)">
            <path id="Path_3658" fill="#e7eced" d="M15.151 28.893l-4.924 2.686a4.425 4.425 0 0 0-.79.562 16.491 16.491 0 0 0 21.189.055 4.368 4.368 0 0 0-.868-.582l-5.272-2.636a2.011 2.011 0 0 1-1.112-1.8v-2.066a7.963 7.963 0 0 0 .5-.641 12.132 12.132 0 0 0 1.639-3.3 1.656 1.656 0 0 0 1.174-1.575v-2.212a1.648 1.648 0 0 0-.552-1.224v-3.192S26.79 8 20.063 8s-6.071 4.967-6.071 4.967v3.193a1.646 1.646 0 0 0-.552 1.224v2.208a1.655 1.655 0 0 0 .763 1.389 10.958 10.958 0 0 0 2 4.13v2.018a2.013 2.013 0 0 1-1.052 1.764z" data-name="Path 3658" transform="translate(-3.561 -3.019)"/>
            <g id="Group_230" data-name="Group 230">
                <path id="Path_3659" fill="#556080" d="M16.784 0a16.491 16.491 0 0 0-10.9 29.115 4.385 4.385 0 0 1 .783-.557l4.924-2.686a2.011 2.011 0 0 0 1.048-1.765v-2.015a10.947 10.947 0 0 1-2-4.13 1.656 1.656 0 0 1-.763-1.389v-2.209a1.648 1.648 0 0 1 .552-1.224V9.949S9.774 4.982 16.5 4.982s6.071 4.967 6.071 4.967v3.192a1.646 1.646 0 0 1 .552 1.224v2.208a1.656 1.656 0 0 1-1.174 1.575 12.132 12.132 0 0 1-1.639 3.3 7.962 7.962 0 0 1-.5.641v2.069a2.01 2.01 0 0 0 1.112 1.8L26.2 28.6a4.39 4.39 0 0 1 .866.58A16.5 16.5 0 0 0 16.784 0z" data-name="Path 3659"/>
            </g>
        </g>
    </g>
</svg>
