<svg xmlns="http://www.w3.org/2000/svg" width="28.07" height="26.447" viewBox="0 0 28.07 26.447">
    <defs>
        <style>
            .cls-1{fill:#495a79}.cls-2{fill:#ffde33}
        </style>
    </defs>
    <g id="warning" transform="translate(0 -14.8)">
        <path id="Path_648" d="M27.492 35.03l-9.921-18.223a4.119 4.119 0 0 0-7.072 0L.578 35.03a4.107 4.107 0 0 0-.033 4.145 4.058 4.058 0 0 0 3.569 2.072h19.842a4.058 4.058 0 0 0 3.569-2.072 4.107 4.107 0 0 0-.033-4.145z" class="cls-1" data-name="Path 648"/>
        <path id="Path_649" d="M269.49 39.175a4.058 4.058 0 0 1-3.569 2.072H256V14.8a4.106 4.106 0 0 1 3.536 2.007l9.921 18.223a4.107 4.107 0 0 1 .033 4.145z" class="cls-1" data-name="Path 649" transform="translate(-241.965)"/>
        <path id="Path_650" d="M54.435 64.224L44.514 46a2.475 2.475 0 0 0-4.243 0l-9.922 18.224a2.478 2.478 0 0 0 2.122 3.733h19.842a2.478 2.478 0 0 0 2.122-3.733z" class="cls-2" data-name="Path 650" transform="translate(-28.357 -28.355)"/>
        <path id="Path_651" d="M268.059 66.708a2.427 2.427 0 0 1-2.138 1.25H256V44.8a2.442 2.442 0 0 1 2.122 1.2l9.921 18.223a2.443 2.443 0 0 1 .016 2.485z" class="cls-2" data-name="Path 651" transform="translate(-241.965 -28.355)"/>
        <g id="Group_942" data-name="Group 942" transform="translate(12.39 21.51)">
            <path id="Path_652" d="M227.645 380.489a1.645 1.645 0 1 1 1.645-1.645 1.647 1.647 0 0 1-1.645 1.645z" class="cls-1" data-name="Path 652" transform="translate(-226 -364.042)"/>
            <path id="Path_653" d="M229.289 147.068a1.645 1.645 0 0 1-3.289 0v-8.224a1.645 1.645 0 1 1 3.289 0z" class="cls-1" data-name="Path 653" transform="translate(-226 -137.2)"/>
        </g>
        <g id="Group_943" data-name="Group 943" transform="translate(14.035 21.51)">
            <path id="Path_654" d="M257.645 378.845A1.647 1.647 0 0 0 256 377.2v3.289a1.647 1.647 0 0 0 1.645-1.644z" class="cls-1" data-name="Path 654" transform="translate(-256 -364.042)"/>
            <path id="Path_655" d="M257.645 147.068v-8.224A1.647 1.647 0 0 0 256 137.2v11.513a1.647 1.647 0 0 0 1.645-1.645z" class="cls-1" data-name="Path 655" transform="translate(-256 -137.2)"/>
        </g>
    </g>
</svg>
